<svg width="31.450684" height="32.000000" viewBox="0 0 31.4507 32" fill="none" xmlns="http://www.w3.org/2000/svg" xmlns:xlink="http://www.w3.org/1999/xlink">
	<desc>
			Created with Pixso.
	</desc>
	<defs>
		<clipPath id="clip4203_435">
			<rect id="instagram-brands 1" rx="0.000000" width="13.899101" height="16.000000" transform="translate(8.446289 8.500000)" fill="white" fill-opacity="0"/>
		</clipPath>
	</defs>
	<path id="Rectangle 14" d="M0 0L31.45 0L31.45 32L0 32L0 0Z" fill="#F16D7F" fill-opacity="1.000000" fill-rule="evenodd"/>
	<rect id="instagram-brands 1" rx="0.000000" width="13.899101" height="16.000000" transform="translate(8.446289 8.500000)" fill="#FFFFFF" fill-opacity="0"/>
	<g clip-path="url(#clip4203_435)">
		<path id="Vector" d="M15.39 12.68C13.28 12.68 11.57 14.38 11.57 16.49C11.57 18.6 13.28 20.31 15.39 20.31C17.51 20.31 19.22 18.6 19.22 16.49C19.22 14.38 17.51 12.68 15.39 12.68ZM15.39 18.97C14.03 18.97 12.91 17.86 12.91 16.49C12.91 15.12 14.02 14.01 15.39 14.01C16.76 14.01 17.88 15.12 17.88 16.49C17.88 17.86 16.76 18.97 15.39 18.97ZM20.26 12.52C20.26 13.02 19.86 13.41 19.37 13.41C18.88 13.41 18.48 13.01 18.48 12.52C18.48 12.03 18.88 11.63 19.37 11.63C19.86 11.63 20.26 12.03 20.26 12.52ZM22.79 13.42C22.74 12.23 22.46 11.18 21.59 10.31C20.72 9.44 19.66 9.16 18.47 9.1C17.24 9.03 13.55 9.03 12.32 9.1C11.13 9.16 10.07 9.43 9.19 10.3C8.32 11.17 8.05 12.23 7.99 13.42C7.92 14.65 7.92 18.33 7.99 19.56C8.05 20.75 8.32 21.81 9.19 22.68C10.07 23.55 11.12 23.82 12.32 23.88C13.55 23.95 17.24 23.95 18.47 23.88C19.66 23.82 20.72 23.55 21.59 22.68C22.46 21.81 22.73 20.75 22.79 19.56C22.86 18.33 22.86 14.65 22.79 13.42ZM21.2 20.88C20.94 21.53 20.44 22.03 19.79 22.29C18.81 22.68 16.48 22.59 15.39 22.59C14.31 22.59 11.98 22.68 11 22.29C10.35 22.03 9.85 21.53 9.58 20.88C9.19 19.9 9.28 17.57 9.28 16.49C9.28 15.41 9.2 13.08 9.58 12.11C9.84 11.45 10.35 10.95 11 10.69C11.98 10.3 14.31 10.39 15.39 10.39C16.48 10.39 18.81 10.31 19.79 10.69C20.44 10.95 20.94 11.45 21.2 12.11C21.59 13.09 21.5 15.41 21.5 16.49C21.5 17.57 21.59 19.9 21.2 20.88Z" fill="#FFFFFF" fill-opacity="1.000000" fill-rule="nonzero"/>
	</g>
</svg>
